<svg fill="none" height="48" viewBox="0 0 48 48" width="48" xmlns="http://www.w3.org/2000/svg" version="1.1">
  <path
    d="M11 34.6875L24 42L32 37.5L37 34.6875"
    stroke="black"
    stroke-linecap="round"
    stroke-linejoin="round"
    stroke-width="4"
  />
  <path d="M40 30V15L27.5 7.96875" stroke="black" stroke-linecap="round" stroke-linejoin="round" stroke-width="4" />
  <path d="M20.5 7.96875L8 15V30" stroke="black" stroke-linecap="round" stroke-linejoin="round" stroke-width="4" />
  <path
    d="M21 18.75L18 20.5V24V27.5L21 29.25L24 31L27 29.25L30 27.5V24V20.5L27 18.75L24 17L21 18.75Z"
    fill="#2F88FF"
    stroke="black"
    stroke-linecap="round"
    stroke-linejoin="round"
    stroke-width="4"
  />
  <path d="M24 17V10" stroke="black" stroke-linecap="round" stroke-linejoin="round" stroke-width="4" />
  <path d="M30 27L37 31" stroke="black" stroke-linecap="round" stroke-linejoin="round" stroke-width="4" />
  <path d="M18 27L11 31" stroke="black" stroke-linecap="round" stroke-linejoin="round" stroke-width="4" />
  <circle
    cx="24"
    cy="7"
    fill="#2F88FF"
    r="3"
    stroke="black"
    stroke-linecap="round"
    stroke-linejoin="round"
    stroke-width="4"
  />
  <circle
    cx="8"
    cy="33"
    fill="#2F88FF"
    r="3"
    stroke="black"
    stroke-linecap="round"
    stroke-linejoin="round"
    stroke-width="4"
  />
  <circle
    cx="40"
    cy="33"
    fill="#2F88FF"
    r="3"
    stroke="black"
    stroke-linecap="round"
    stroke-linejoin="round"
    stroke-width="4"
  />
</svg>
